<?xml version="1.0" encoding="UTF-8" standalone="no"?>
<!-- Created with Inkscape (http://www.inkscape.org/) -->

<svg
   width="512"
   height="512"
   viewBox="0 0 512 512"
   version="1.1"
   id="svg1"
   xml:space="preserve"
   xmlns:xlink="http://www.w3.org/1999/xlink"
   xmlns="http://www.w3.org/2000/svg"
   xmlns:svg="http://www.w3.org/2000/svg"><defs
     id="defs1"><linearGradient
       id="linearGradient65599"><stop
         style="stop-color:#000000;stop-opacity:0;"
         offset="0.33745089"
         id="stop65601" /><stop
         style="stop-color:#eb4a4a;stop-opacity:0.18039216;"
         offset="0.8278566"
         id="stop65600" /></linearGradient><linearGradient
       xlink:href="#linearGradient65599"
       id="linearGradient65602"
       x1="154.48346"
       y1="47.859406"
       x2="357.517"
       y2="464.13986"
       gradientUnits="userSpaceOnUse"
       gradientTransform="matrix(1.1054619,0,0,1.1054619,-26.998606,-26.997769)" /></defs><g
     id="layer1"
     style="display:inline"><path
       id="path43"
       style="display:inline;fill:#ebd74a;stroke-width:1.08707"
       d="m 231.77465,41.382784 -12.98918,64.393156 a 154.76466,154.76466 0 0 0 -37.73684,14.8201 L 127.71225,82.248167 146.14238,137.02682 A 276.36546,79.593253 23.168002 0 0 73.87712,126.31551 276.36546,79.593253 23.168002 0 0 1.92278,148.37509 276.36546,79.593253 23.168002 0 0 89.949505,258.31241 l -48.566918,21.91275 64.393153,12.98917 a 154.76466,154.76466 0 0 0 14.8201,37.73685 l -38.347865,53.33637 62.262115,-20.94763 a 154.76466,154.76466 0 0 0 31.70214,25.27232 l -6.54209,65.36475 43.44552,-49.27294 a 154.76466,154.76466 0 0 0 40.09242,6.0347 l 27.01688,59.87847 12.98918,-64.39316 a 154.76466,154.76466 0 0 0 37.73684,-14.82009 l 53.33638,38.34786 -17.62478,-52.38637 A 276.36546,79.593253 23.168002 0 0 510.07683,365.83584 276.36546,79.593253 23.168002 0 0 420.07884,254.57715 l 50.53818,-22.80231 -64.39315,-12.98917 a 154.76466,154.76466 0 0 0 -14.8201,-37.73685 l 38.34786,-53.33637 -62.26211,20.94764 a 154.76466,154.76466 0 0 0 -31.70214,-25.27233 l 6.54209,-65.364754 -43.44552,49.272944 a 154.76466,154.76466 0 0 0 -40.09242,-6.0347 z M 255.99981,132.741 A 123.259,123.259 0 0 1 379.2588,256 123.259,123.259 0 0 1 336.24727,349.55834 236.44601,60.800402 23.168002 0 1 229.58531,311.93378 236.44601,60.800402 23.168002 0 1 132.95672,263.28266 123.259,123.259 0 0 1 132.74081,256 123.259,123.259 0 0 1 255.99981,132.741 Z M 76.720665,147.53736 a 236.44601,60.800402 23.168002 0 1 62.186545,7.26322 154.76466,154.76466 0 0 0 -15.51965,21.41185 l -65.36475,-6.54209 49.27294,43.44551 a 154.76466,154.76466 0 0 0 -5.5489,30.32896 236.44601,60.800402 23.168002 0 1 -65.619525,-80.43099 236.44601,60.800402 23.168002 0 1 40.59334,-15.47646 z m 333.225505,124.3407 a 236.44601,60.800402 23.168002 0 1 60.93642,77.18369 236.44601,60.800402 23.168002 0 1 -98.60417,9.0704 154.76466,154.76466 0 0 0 16.33363,-22.34458 l 65.36474,6.54209 -49.27293,-43.44551 a 154.76466,154.76466 0 0 0 5.24231,-27.00609 z m -273.23909,15.13749 a 276.36546,79.593253 23.168002 0 0 87.97923,43.26415 276.36546,79.593253 23.168002 0 0 91.12718,33.4942 123.259,123.259 0 0 1 -59.81368,15.4851 123.259,123.259 0 0 1 -119.29273,-92.24345 z" /><path
       id="path43-2"
       style="display:inline;mix-blend-mode:hard-light;fill:url(#linearGradient65602);stroke-width:1.10546;paint-order:markers stroke fill"
       d="m 231.77465,41.382785 -12.98918,64.393145 a 154.76466,154.76466 0 0 0 -37.73684,14.82011 L 127.71225,82.248175 146.14238,137.02682 A 276.36546,79.593253 23.168002 0 0 73.877118,126.3155 276.36546,79.593253 23.168002 0 0 1.9227825,148.37508 276.36546,79.593253 23.168002 0 0 89.949513,258.3124 l -48.566927,21.91276 64.393154,12.98917 a 154.76466,154.76466 0 0 0 14.8201,37.73684 l -38.347867,53.33638 62.262107,-20.94763 a 154.76466,154.76466 0 0 0 31.70215,25.27233 l -6.54209,65.36474 43.44551,-49.27294 a 154.76466,154.76466 0 0 0 40.09243,6.03469 l 27.01688,59.87847 12.98918,-64.39315 a 154.76466,154.76466 0 0 0 37.73684,-14.8201 l 53.33638,38.34786 -17.62478,-52.38636 A 276.36546,79.593253 23.168002 0 0 510.07682,365.83583 276.36546,79.593253 23.168002 0 0 420.07884,254.57715 l 50.53818,-22.80231 -64.39315,-12.98918 a 154.76466,154.76466 0 0 0 -14.8201,-37.73684 l 38.34786,-53.33637 -62.26211,20.94763 a 154.76466,154.76466 0 0 0 -31.70215,-25.27232 l 6.54209,-65.364745 -43.44551,49.272935 a 154.76466,154.76466 0 0 0 -40.09242,-6.03469 z M 255.9998,132.741 A 123.259,123.259 0 0 1 379.2588,256 123.259,123.259 0 0 1 336.24727,349.55834 236.44601,60.800402 23.168002 0 1 229.58531,311.93378 236.44601,60.800402 23.168002 0 1 132.95671,263.28266 123.259,123.259 0 0 1 132.74081,256 123.259,123.259 0 0 1 255.9998,132.741 Z M 76.720663,147.53735 a 236.44601,60.800402 23.168002 0 1 62.186547,7.26323 154.76466,154.76466 0 0 0 -15.51965,21.41184 l -65.364744,-6.54209 49.272934,43.44552 a 154.76466,154.76466 0 0 0 -5.5489,30.32896 236.44601,60.800402 23.168002 0 1 -65.619519,-80.43098 236.44601,60.800402 23.168002 0 1 40.593332,-15.47648 z m 333.225507,124.3407 a 236.44601,60.800402 23.168002 0 1 60.93641,77.18369 236.44601,60.800402 23.168002 0 1 -98.60416,9.07041 154.76466,154.76466 0 0 0 16.33363,-22.34458 l 65.36474,6.54209 -49.27293,-43.44552 a 154.76466,154.76466 0 0 0 5.24231,-27.00609 z m -273.23909,15.13749 a 276.36546,79.593253 23.168002 0 0 87.97922,43.26415 276.36546,79.593253 23.168002 0 0 91.12719,33.4942 123.259,123.259 0 0 1 -59.81369,15.4851 123.259,123.259 0 0 1 -119.29272,-92.24345 z" /></g></svg>
